#N canvas 432 142 846 620 12;
#X obj 88 45 osc~ 440;
#X obj 89 258 dac~ 1 2;
#X obj 88 142 *~ 0;
#X obj 113 109 / 100;
#X floatatom 113 82 5 0 0 0 oscillator_one - -;
#X obj 235 144 *~ 0;
#X obj 260 111 / 100;
#X floatatom 260 84 5 0 0 0 oscillator_two - -;
#X obj 89 214 *~;
#X obj 89 174 /~ 2;
#X obj 234 174 /~ 2;
#X obj 235 47 phasor~ 440;
#X connect 0 0 2 0;
#X connect 2 0 9 0;
#X connect 3 0 2 1;
#X connect 4 0 3 0;
#X connect 5 0 10 0;
#X connect 6 0 5 1;
#X connect 7 0 6 0;
#X connect 8 0 1 0;
#X connect 8 0 1 1;
#X connect 9 0 8 0;
#X connect 10 0 8 1;
#X connect 11 0 5 0;
