#N canvas 540 131 341 300 12;
#X obj 88 45 osc~ 440;
#X obj 87 190 dac~ 1 2;
#X obj 88 142 *~ 0;
#X obj 113 109 / 100;
#X floatatom 113 82 5 0 0 0 my_number_box - -;
#X connect 0 0 2 0;
#X connect 2 0 1 0;
#X connect 2 0 1 1;
#X connect 3 0 2 1;
#X connect 4 0 3 0;
