#N canvas 540 131 508 482 12;
#X obj 86 396 dac~ 1 2;
#X obj 85 355 *~;
#X floatatom 85 107 5 0 0 0 carrier - -;
#X obj 85 150 *~, f 8;
#X obj 136 78 osc~ 440, f 9;
#X floatatom 136 46 5 0 0 0 modulator - -;
#X obj 137 115 *~;
#X floatatom 215 82 5 0 0 2 mod_depth - -;
#X obj 102 322 line~;
#X msg 102 293 \$1 50;
#X obj 84 182 osc~, f 5;
#X obj 163 322 vline~;
#X msg 163 292 1 10 \, 0 600 50;
#X obj 163 267 bng 15 250 50 0 empty empty note_trigger 17 7 0 10 -262144
-1 -1;
#X floatatom 102 236 5 0 0 2 volume - -;
#X obj 102 263 / 100;
#X connect 1 0 0 0;
#X connect 1 0 0 1;
#X connect 2 0 3 0;
#X connect 3 0 10 0;
#X connect 4 0 6 0;
#X connect 5 0 4 0;
#X connect 6 0 3 1;
#X connect 7 0 6 1;
#X connect 8 0 1 1;
#X connect 9 0 8 0;
#X connect 10 0 1 0;
#X connect 11 0 1 1;
#X connect 12 0 11 0;
#X connect 13 0 12 0;
#X connect 14 0 15 0;
#X connect 15 0 9 0;
