#N canvas 339 46 1413 543 12;
#X msg 146 217 [;
#X msg 37 216 ];
#X obj 37 175 t b a b, f 16;
#X obj 37 354 mrpeach/packOSC;
#X obj 37 143 list trim;
#X obj 37 12 tgl 19 0 empty empty empty 0 -10 0 12 -262144 -1 -1 0
1;
#X msg 37 79 tick;
#X obj 37 111 list prepend /py;
#X obj 760 334 dac~;
#N canvas 0 22 450 300 (subpatch) 0;
#X array array1 4316 float 0;
#X coords 0 1 4315 -1 300 100 1;
#X restore 759 392 graph;
#X obj 983 359 soundfiler;
#X msg 983 325 read -resize ./tick.wav array1;
#X obj 760 76 mrpeach/unpackOSC;
#X text 756 12 receive OSC messages;
#X obj 760 192 mrpeach/routeOSC /pd;
#X obj 760 225 route tick;
#X obj 983 295 loadbang;
#X msg 799 260 bang;
#X obj 760 295 tabplay~ array1;
#X text 834 263 test the audio;
#X obj 715 223 print;
#X text 36 197 close bundle;
#X text 141 197 open a bundle (and generate a timetag);
#X obj 160 240 cnv 15 400 100 empty empty empty 20 12 0 14 -262130
-66577 0;
#X msg 165 250 timetagoffset 0;
#X msg 187 273 timetagoffset -1;
#X text 277 250 send current time as timetag;
#X text 308 273 immediate time tag (default);
#X text 360 295 current time plus 1 second (delay is in microseconds)
;
#X obj 752 104 cnv 15 600 80 empty empty empty 10 12 0 14 -262130 -66577
0;
#X text 902 139 If the OSC packet has a timetag \, [pipelist] will
delay it until the time occurs;
#X obj 760 148 mrpeach/pipelist, f 17;
#X floatatom 886 108 10 0 0 1 - - -;
#X obj 55 406 loadbang;
#X obj 36 466 mrpeach/udpsend;
#X obj 130 495 tgl 19 0 empty empty empty 0 -10 0 12 -262144 -1 -1
1 1;
#X text 34 495 is connected:;
#X msg 127 406 disconnect;
#X text 259 433 connect to python server;
#X msg 55 433 connect 193.157.182.176 8000;
#X text 359 313 1million = 1sec \, 2million = 2sec etc..;
#X obj 37 48 metro 500;
#X text 64 12 Send a metronome puls to remote client;
#X obj 760 42 mrpeach/udpreceive 8001;
#X msg 210 296 timetagoffset 1e+007;
#X text 961 105 second outlet is timetag offset in millieconds relative
to receiver's clock.;
#X connect 0 0 3 0;
#X connect 1 0 3 0;
#X connect 2 0 1 0;
#X connect 2 1 3 0;
#X connect 2 2 0 0;
#X connect 3 0 34 0;
#X connect 4 0 2 0;
#X connect 5 0 41 0;
#X connect 6 0 7 0;
#X connect 7 0 4 0;
#X connect 11 0 10 0;
#X connect 12 0 31 0;
#X connect 12 1 31 1;
#X connect 12 1 32 0;
#X connect 14 0 15 0;
#X connect 14 0 20 0;
#X connect 15 0 18 0;
#X connect 16 0 11 0;
#X connect 17 0 18 0;
#X connect 18 0 8 0;
#X connect 18 0 8 1;
#X connect 24 0 3 0;
#X connect 25 0 3 0;
#X connect 31 0 14 0;
#X connect 33 0 39 0;
#X connect 34 0 35 0;
#X connect 37 0 34 0;
#X connect 39 0 34 0;
#X connect 41 0 6 0;
#X connect 43 0 12 0;
#X connect 44 0 3 0;
