#N canvas 1128 361 1210 790 12;
#X obj 58 50 netreceive -u -b 8888;
#X floatatom 621 482 10 0 0 1 - - -;
#X obj 599 330 print bundle_depth;
#X msg 569 207 timetagoffset 0;
#X msg 592 230 timetagoffset -1;
#X msg 645 129 [;
#X msg 599 130 ];
#X text 509 131 close bundle;
#X obj 599 91 t b a b;
#X text 675 129 open a bundle (and generate time tag);
#X text 452 32 Timetags are sent in bundle messages only;
#X text 329 390 Network layer is here ->;
#X text 682 207 Send current time as timetag;
#X text 713 230 Immediate time tag (default);
#X text 764 252 Current time plus 1 second (delay is in microseconds)
;
#X obj 497 510 print delayed;
#X msg 391 210 /test hello;
#X msg 455 57 [ \, /test hello! \, ];
#X msg 601 58 /test 1 2 3;
#X text 633 514 Second outlet of unpackOSC is timetag offset (if any)
in millieconds relative to receiver's clock. We can use this number
directly as the second argument of [pipelist] \, which will delay it
until the time occurs., f 43;
#X floatatom 189 144 10 0 0 1 - - -;
#X obj 58 206 print fromPython;
#X text 58 530 mrPeach;
#X obj 58 172 mrpeach/routeOSC /test;
#X obj 498 446 mrpeach/unpackOSC;
#X obj 498 477 mrpeach/pipelist;
#X obj 499 297 mrpeach/packOSC;
#X obj 58 144 mrpeach/pipelist;
#X obj 58 114 mrpeach/unpackOSC;
#X obj 66 399 mrpeach/pipelist;
#X obj 66 432 print;
#X obj 66 326 t b b b b, f 24;
#X msg 175 357 1;
#X msg 66 355 2;
#X msg 67 290 bang;
#X msg 232 354 1000;
#X msg 120 355 500;
#X msg 615 253 timetagoffset 1e+006;
#X text 766 269 1 million is 1sec \, 2 million is 2 sec \, etc..;
#X text 55 606 client3 would be adding forward sync with adding timetags
;
#X text 56 636 client5 would be adding backward sync;
#X text 55 560 client2 would be adding a metronome that plays. And
\, possibility to delay the receving signal.;
#X connect 0 0 28 0;
#X connect 3 0 26 0;
#X connect 4 0 26 0;
#X connect 5 0 26 0;
#X connect 6 0 26 0;
#X connect 8 0 6 0;
#X connect 8 1 26 0;
#X connect 8 2 5 0;
#X connect 16 0 26 0;
#X connect 17 0 26 0;
#X connect 18 0 8 0;
#X connect 23 0 21 0;
#X connect 24 0 25 0;
#X connect 24 1 1 0;
#X connect 24 1 25 1;
#X connect 25 0 15 0;
#X connect 26 0 24 0;
#X connect 26 1 2 0;
#X connect 27 0 23 0;
#X connect 28 0 27 0;
#X connect 28 1 20 0;
#X connect 28 1 27 1;
#X connect 29 0 30 0;
#X connect 31 0 33 0;
#X connect 31 1 36 0;
#X connect 31 2 32 0;
#X connect 31 3 35 0;
#X connect 32 0 29 0;
#X connect 33 0 29 0;
#X connect 34 0 31 0;
#X connect 35 0 29 1;
#X connect 36 0 29 1;
#X connect 37 0 26 0;
