#N canvas 154 5 660 749 12;
#X msg 146 311 [;
#X msg 37 310 ];
#X obj 37 262 t b a b, f 16;
#X obj 37 347 mrpeach/packOSC;
#X obj 37 228 list trim;
#X obj 37 411 netsend -u -b;
#X obj 37 97 tgl 19 0 empty empty empty 0 -10 0 12 #fcfcfc #000000 #000000 0 1;
#X msg 37 164 tick;
#X obj 37 196 list prepend /py;
#X text 118 136 Send a metronome puls to py client via server;
#X text 36 290;
#X msg 79 377 connect localhost 7001;
#X obj 37 133 metro 1000;
#X text 219 505 set up PD audio player and logice here \, just to show;
#X connect 0 0 3 0;
#X connect 1 0 3 0;
#X connect 2 0 1 0;
#X connect 2 1 3 0;
#X connect 2 2 0 0;
#X connect 3 0 5 0;
#X connect 4 0 2 0;
#X connect 6 0 12 0;
#X connect 7 0 8 0;
#X connect 8 0 4 0;
#X connect 11 0 5 0;
#X connect 12 0 7 0;
