#N canvas 171 195 849 586 12;
#X msg 146 161 [;
#X msg 37 160 ];
#X text 36 140 close bundle;
#X obj 37 112 t b a b, f 16;
#X text 141 140 open a bundle (and generate time tag);
#X obj 37 197 mrpeach/packOSC;
#X obj 37 254 netsend -u -b 7000;
#X msg 162 216 connect localhost 7000;
#X obj 37 51 list prepend;
#X obj 37 82 list trim;
#X msg 118 16 /pd/1;
#X msg 169 16 /pd/2;
#X obj 35 354 netreceive -u -b 8000;
#X obj 35 390 mrpeach/unpackOSC;
#X msg 37 15 1 2 3;
#X obj 35 426 mrpeach/routeOSC /pd;
#X obj 35 461 mrpeach/routeOSC /1 /2, f 23;
#X obj 34 502 print pd1;
#X obj 114 502 print pd2;
#X msg 222 14 /pd;
#X text 164 195 send to python OSC server;
#X text 31 331 receive from our OSC server;
#X connect 0 0 5 0;
#X connect 1 0 5 0;
#X connect 3 0 1 0;
#X connect 3 1 5 0;
#X connect 3 2 0 0;
#X connect 5 0 6 0;
#X connect 7 0 6 0;
#X connect 8 0 9 0;
#X connect 9 0 3 0;
#X connect 10 0 8 1;
#X connect 11 0 8 1;
#X connect 12 0 13 0;
#X connect 13 0 15 0;
#X connect 14 0 8 0;
#X connect 15 0 16 0;
#X connect 16 0 17 0;
#X connect 16 1 18 0;
#X connect 19 0 8 1;
