#N canvas 558 58 812 749 12;
#X msg 146 304 [;
#X msg 37 303 ];
#X obj 37 262 t b a b, f 16;
#X obj 37 340 mrpeach/packOSC;
#X obj 37 228 list trim;
#X obj 37 404 netsend -u -b;
#X obj 37 97 tgl 19 0 empty empty empty 0 -10 0 12 #fcfcfc #000000 #000000 0 1;
#X msg 37 164 tick;
#X obj 37 196 list prepend /py;
#X text 67 84 Send a metronome puls to py client via server;
#X msg 79 370 connect localhost 7001;
#X obj 37 133 metro 1000;
#X text 249 600 AND!!! check if its sync when playing at the same time.;
#X obj 352 484 tabplay~;
#X obj 352 522 dac~;
#X msg 352 444 bang;
#N canvas 0 22 450 300 (subpatch) 0;
#X array array1 4316 float 0;
#X coords 0 1 4315 -1 300 100 1;
#X restore 351 246 graph;
#X obj 351 397 soundfiler;
#X msg 399 445 set array1;
#X msg 351 363 read -resize ./tick.wav array1;
#X text 348 194 Use this to play metronome click in PD from consecutive bang messages received from Python.;
#X connect 0 0 3 0;
#X connect 1 0 3 0;
#X connect 2 0 1 0;
#X connect 2 1 3 0;
#X connect 2 2 0 0;
#X connect 3 0 5 0;
#X connect 4 0 2 0;
#X connect 6 0 11 0;
#X connect 7 0 8 0;
#X connect 8 0 4 0;
#X connect 10 0 5 0;
#X connect 11 0 7 0;
#X connect 13 0 14 0;
#X connect 13 0 14 1;
#X connect 15 0 13 0;
#X connect 18 0 13 0;
#X connect 19 0 17 0;
