#N canvas 347 244 743 407 12;
#X obj 21 222 list split 20, f 59;
#X obj 21 251 list split 16, f 14;
#X msg 450 121 35 98 117 110 100 108 101 0 131 170 126 127 0 0 0 0 0 0 0 40 47 112 121 0 44 115 115 115 115 0 0 0 72 101 108 108 111 0 0 0 102 114 111 109 0 0 0 0 80 68 0 0 99 108 105 101 110 116 33 0, f 39;
#X text 127 252 remove the last 4 digits in the time tag;
#X obj 160 310 list store;
#X obj 21 280 t b l;
#X text 244 309 reverse the order so that the timetag is first "out".;
#X obj 21 189 inlet;
#X text 451 98 Test list;
#X obj 53 363 outlet;
#X obj 159 364 outlet;
#X text 166 346 OSC message;
#X text 58 346 timetag;
#X text 17 57 This object provide a hacky fix \; taking a raw OSC bundle/list that contains a timetag and returning the same bundle without the 4 last digits of the timetag.;
#X text 17 124 However \, this intermediate layer will reduce the sync accuracy of the system \, naturally;
#X text 17 9 Sometimes \, unpackOSC crashes PD (only the 64-bit version) when receiving an OSC message with a timetag;
#X connect 0 0 1 0;
#X connect 0 1 4 1;
#X connect 1 0 5 0;
#X connect 2 0 0 0;
#X connect 4 0 10 0;
#X connect 5 0 4 0;
#X connect 5 1 9 0;
#X connect 7 0 0 0;
