#N canvas 339 46 1413 543 12;
#X msg 146 217 [;
#X msg 37 216 ];
#X obj 37 175 t b a b, f 16;
#X obj 37 354 mrpeach/packOSC;
#X obj 37 143 list trim;
#X obj 37 12 tgl 19 0 empty empty empty 0 -10 0 12 #fcfcfc #000000 #000000 0 1;
#X msg 37 79 tick;
#X obj 37 111 list prepend /py;
#X text 64 12 Send a metronome puls to py client via server;
#X obj 760 334 dac~;
#N canvas 0 22 450 300 (subpatch) 0;
#X array array1 4316 float 0;
#X coords 0 1 4315 -1 300 100 1;
#X restore 759 392 graph;
#X obj 983 359 soundfiler;
#X msg 983 325 read -resize ./tick.wav array1;
#X obj 760 76 mrpeach/unpackOSC;
#X text 756 12 receive OSC messages;
#X obj 760 192 mrpeach/routeOSC /pd;
#X obj 760 225 route tick;
#X obj 983 295 loadbang;
#X msg 799 260 bang;
#X obj 760 295 tabplay~ array1;
#X text 834 263 test the audio;
#X obj 37 48 metro 400;
#X obj 715 223 print;
#X text 36 197 close bundle;
#X text 141 197 open a bundle (and generate a timetag);
#X obj 160 240 cnv 15 400 100 empty empty empty 20 12 0 14 #fcfcc4 #404040 0;
#X msg 165 250 timetagoffset 0;
#X msg 187 273 timetagoffset -1;
#X text 277 250 send current time as timetag;
#X text 308 273 immediate time tag (default);
#X msg 210 296 timetagoffset 1e+06;
#X text 360 295 current time plus 1 second (delay is in microseconds);
#X obj 752 104 cnv 15 600 80 empty empty empty 10 12 0 14 #fcfcc4 #404040 0;
#X text 902 139 If the OSC packet has a timetag \, [pipelist] will delay it until the time occurs;
#X obj 760 148 mrpeach/pipelist, f 17;
#X floatatom 880 107 10 0 0 1 - - - 0;
#X text 956 101 second outlet is timetag offset in millieconds relative to receiver's clock;
#X obj 57 388 loadbang;
#X obj 38 475 mrpeach/udpsend;
#X msg 57 415 connect localhost 8888;
#X obj 135 501 tgl 19 0 empty empty empty 0 -10 0 12 #fcfcfc #000000 #000000 0 1;
#X text 39 501 is connected:;
#X msg 130 442 disconnect;
#X text 223 416 connect to python server;
#X obj 760 42 mrpeach/udpreceive 61002;
#X connect 0 0 3 0;
#X connect 1 0 3 0;
#X connect 2 0 1 0;
#X connect 2 1 3 0;
#X connect 2 2 0 0;
#X connect 3 0 38 0;
#X connect 4 0 2 0;
#X connect 5 0 21 0;
#X connect 6 0 7 0;
#X connect 7 0 4 0;
#X connect 12 0 11 0;
#X connect 13 0 34 0;
#X connect 13 1 34 1;
#X connect 13 1 35 0;
#X connect 15 0 16 0;
#X connect 15 0 22 0;
#X connect 16 0 19 0;
#X connect 17 0 12 0;
#X connect 18 0 19 0;
#X connect 19 0 9 0;
#X connect 19 0 9 1;
#X connect 21 0 6 0;
#X connect 26 0 3 0;
#X connect 27 0 3 0;
#X connect 30 0 3 0;
#X connect 34 0 15 0;
#X connect 37 0 39 0;
#X connect 38 0 40 0;
#X connect 39 0 38 0;
#X connect 42 0 38 0;
#X connect 44 0 13 0;
