#N canvas 842 119 983 358 12;
#X msg 146 181 [;
#X msg 37 180 ];
#X text 36 160 close bundle;
#X obj 37 132 t b a b, f 16;
#X obj 37 102 list trim;
#X text 672 121 unpack the OSC formatted message;
#X text 685 183 route the desired OSC address;
#X text 297 274 connect to python server;
#X obj 37 71 list prepend /py;
#X msg 37 27 Hello from PD client!;
#X obj 79 246 loadbang;
#X text 141 160 open a bundle;
#X text 198 29 send message to python;
#X obj 539 119 mrpeach/unpackOSC;
#X obj 37 216 mrpeach/packOSC;
#X text 460 15 receive OSC messages on port;
#X obj 37 304 mrpeach/udpsend;
#X obj 539 217 print osc;
#X msg 149 244 disconnect;
#X obj 465 54 mrpeach/udpreceive 61002;
#X msg 80 271 connect 129.240.238.21 61001;
#X obj 539 183 mrpeach/routeOSC /pd;
#X obj 539 153 mrpeach/pipelist, f 17;
#X obj 465 86 at.parseOSC;
#X obj 694 149 print;
#X connect 0 0 14 0;
#X connect 1 0 14 0;
#X connect 3 0 1 0;
#X connect 3 1 14 0;
#X connect 3 2 0 0;
#X connect 4 0 3 0;
#X connect 8 0 4 0;
#X connect 9 0 8 0;
#X connect 10 0 20 0;
#X connect 13 0 22 0;
#X connect 13 1 22 1;
#X connect 13 1 24 0;
#X connect 14 0 16 0;
#X connect 18 0 16 0;
#X connect 20 0 16 0;
#X connect 21 0 17 0;
#X connect 22 0 21 0;
#X connect 23 0 13 0;
#X connect 23 1 13 0;
