#N canvas 471 166 884 401 12;
#X msg 146 181 [;
#X msg 37 180 ];
#X text 36 160 close bundle;
#X obj 37 132 t b a b, f 16;
#X obj 37 217 mrpeach/packOSC;
#X obj 37 102 list trim;
#X obj 464 105 mrpeach/routeOSC /pd;
#X text 460 15 receive OSC messages;
#X obj 464 38 netreceive -u -b 8888;
#X text 597 76 unpack the OSC formatted message;
#X text 616 108 route the desired OSC address;
#X obj 464 136 print;
#X text 246 267 connect to python server;
#X obj 37 71 list prepend /py;
#X msg 37 27 Hello from PD client!;
#X obj 183 238 loadbang;
#X text 141 160 open a bundle;
#X text 198 29 send message to python;
#X obj 37 301 netsend -u -b;
#X msg 79 267 connect localhost 8888;
#X obj 400 107 print;
#X obj 464 74 mrpeach/unpackOSC;
#X connect 0 0 4 0;
#X connect 1 0 4 0;
#X connect 3 0 1 0;
#X connect 3 1 4 0;
#X connect 3 2 0 0;
#X connect 4 0 18 0;
#X connect 5 0 3 0;
#X connect 6 0 11 0;
#X connect 8 0 21 0;
#X connect 13 0 5 0;
#X connect 14 0 13 0;
#X connect 15 0 19 0;
#X connect 19 0 18 0;
#X connect 21 0 6 0;
#X connect 21 0 20 0;
