#N canvas 1277 220 1126 526 12;
#X msg 146 254 [;
#X msg 37 253 ];
#X obj 37 212 t b a b, f 16;
#X obj 37 296 mrpeach/packOSC;
#X obj 37 178 list trim;
#X obj 37 367 netsend -u -b;
#X obj 37 146 list prepend /py;
#X msg 77 333 connect localhost 7001;
#X obj 490 102 mrpeach/unpackOSC;
#X text 486 43 receive OSC messages;
#X obj 490 133 mrpeach/routeOSC /pd;
#X obj 490 166 route tick;
#X obj 176 305 loadbang;
#X obj 490 66 netreceive -u -b 8888;
#X text 243 333 connect to python server;
#X text 36 234 close bundle;
#X text 141 234 open a bundle;
#X obj 437 195 cnv 15 500 300 empty empty empty 10 12 0 14 -262130
-66577 0;
#X obj 491 291 dac~;
#N canvas 0 22 450 300 (subpatch) 0;
#X array array1 4316 float 0;
#X coords 0 1 4315 -1 300 100 1;
#X restore 490 372 graph;
#X obj 722 338 soundfiler;
#X msg 722 304 read -resize ./tick.wav array1;
#X obj 722 274 loadbang;
#X msg 530 217 bang;
#X obj 491 252 tabplay~ array1;
#X text 565 220 test the audio;
#X obj 436 251 print;
#X text 487 335 load tick audio to local buffer;
#X obj 29 40 cnv 15 100 100 empty empty empty 10 12 0 14 -262130 -66577
0;
#X obj 37 45 tgl 19 0 empty empty empty 0 -10 0 12 -262144 -1 -1 0
1;
#X msg 37 107 tick;
#X text 64 40 Send a metronome puls to py client via server;
#X obj 37 76 metro 400;
#X connect 0 0 3 0;
#X connect 1 0 3 0;
#X connect 2 0 1 0;
#X connect 2 1 3 0;
#X connect 2 2 0 0;
#X connect 3 0 5 0;
#X connect 4 0 2 0;
#X connect 6 0 4 0;
#X connect 7 0 5 0;
#X connect 8 0 10 0;
#X connect 10 0 11 0;
#X connect 11 0 24 0;
#X connect 12 0 7 0;
#X connect 13 0 8 0;
#X connect 21 0 20 0;
#X connect 22 0 21 0;
#X connect 23 0 24 0;
#X connect 24 0 18 0;
#X connect 24 0 18 1;
#X connect 29 0 32 0;
#X connect 30 0 6 0;
#X connect 32 0 30 0;
