#N canvas 980 238 884 480 12;
#X msg 146 181 [;
#X msg 37 180 ];
#X text 36 160 close bundle;
#X obj 37 132 t b a b, f 16;
#X obj 37 217 mrpeach/packOSC;
#X obj 37 102 list trim;
#X obj 442 113 mrpeach/routeOSC /pd;
#X text 438 23 receive OSC messages;
#X text 575 84 unpack the OSC formatted message;
#X text 594 116 route the desired OSC address;
#X obj 442 144 print;
#X obj 37 71 list prepend /py;
#X msg 37 27 Hello from PD client!;
#X obj 56 253 loadbang;
#X text 141 160 open a bundle;
#X text 198 29 send message to python;
#X obj 442 82 mrpeach/unpackOSC;
#X obj 37 340 mrpeach/udpsend;
#X obj 134 366 tgl 19 0 empty empty empty 0 -10 0 12 #fcfcfc #000000 #000000 0 1;
#X text 38 366 is connected:;
#X msg 129 307 disconnect;
#X text 272 281 connect to python server;
#X obj 441 53 mrpeach/udpreceive 61002;
#X msg 56 280 connect 193.157.182.176 61001;
#X floatatom 596 241 12 0 0 0 - - - 0;
#X msg 132 249 connect 129.240.238.20 61001;
#X obj 372 87 print;
#X connect 0 0 4 0;
#X connect 1 0 4 0;
#X connect 3 0 1 0;
#X connect 3 1 4 0;
#X connect 3 2 0 0;
#X connect 4 0 17 0;
#X connect 5 0 3 0;
#X connect 6 0 10 0;
#X connect 11 0 5 0;
#X connect 12 0 11 0;
#X connect 13 0 23 0;
#X connect 16 0 6 0;
#X connect 16 1 24 0;
#X connect 17 0 18 0;
#X connect 20 0 17 0;
#X connect 22 0 16 0;
#X connect 22 0 26 0;
#X connect 23 0 17 0;
#X connect 25 0 17 0;
