#N canvas 375 66 691 586 12;
#X msg 146 181 [;
#X msg 37 180 ];
#X text 36 160 close bundle;
#X obj 37 132 t b a b, f 16;
#X text 141 160 open a bundle (and generate time tag);
#X obj 37 217 mrpeach/packOSC;
#X obj 37 71 list prepend;
#X obj 37 102 list trim;
#X obj 35 410 mrpeach/unpackOSC;
#X obj 35 441 mrpeach/routeOSC /pd;
#X text 31 351 receive OSC messages;
#X text 246 247 connect to python osc server;
#X msg 159 36 /py;
#X msg 37 9 sent from pd client!;
#X obj 35 472 print oscClient1;
#X msg 118 36 /pd;
#X obj 37 281 netsend -u -b 7001;
#X msg 79 247 connect localhost 7001;
#X obj 35 374 netreceive -u -b 8888;
#X connect 0 0 5 0;
#X connect 1 0 5 0;
#X connect 3 0 1 0;
#X connect 3 1 5 0;
#X connect 3 2 0 0;
#X connect 5 0 16 0;
#X connect 6 0 7 0;
#X connect 7 0 3 0;
#X connect 8 0 9 0;
#X connect 9 0 14 0;
#X connect 12 0 6 1;
#X connect 13 0 6 0;
#X connect 15 0 6 1;
#X connect 17 0 16 0;
#X connect 18 0 8 0;
