#N canvas 349 80 814 841 12;
#X msg 146 304 [;
#X msg 37 303 ];
#X obj 37 262 t b a b, f 16;
#X obj 37 406 mrpeach/packOSC;
#X obj 37 228 list trim;
#X obj 37 477 netsend -u -b;
#X obj 37 97 tgl 19 0 empty empty empty 0 -10 0 12 -262144 -1 -1 0
1;
#X msg 37 164 tick;
#X obj 37 196 list prepend /py;
#X text 67 84 Send a metronome puls to py client via server;
#X text 249 600 AND!!! check if its sync when playing at the same time.
;
#X obj 352 484 tabplay~;
#X obj 352 522 dac~;
#X msg 352 444 bang;
#N canvas 0 22 450 300 (subpatch) 0;
#X array array1 4316 float 0;
#X coords 0 1 4315 -1 300 100 1;
#X restore 351 246 graph;
#X obj 351 397 soundfiler;
#X msg 399 445 set array1;
#X msg 351 363 read -resize ./tick.wav array1;
#X text 348 194 Use this to play metronome click in PD from consecutive
bang messages received from Python.;
#X msg 77 443 connect localhost 7001;
#X msg 141 355 timetagoffset 8e+006;
#X msg 260 156 timetagoffset -1;
#X text 381 156 immediate time tag (default);
#X text 431 118 current time plus 1 second (delay is in microseconds)
;
#X obj 37 133 metro 400;
#X msg 265 119 timetagoffset 200000;
#X connect 0 0 3 0;
#X connect 1 0 3 0;
#X connect 2 0 1 0;
#X connect 2 1 3 0;
#X connect 2 2 0 0;
#X connect 3 0 5 0;
#X connect 4 0 2 0;
#X connect 6 0 24 0;
#X connect 7 0 8 0;
#X connect 8 0 4 0;
#X connect 11 0 12 0;
#X connect 11 0 12 1;
#X connect 13 0 11 0;
#X connect 16 0 11 0;
#X connect 17 0 15 0;
#X connect 19 0 5 0;
#X connect 20 0 3 0;
#X connect 21 0 3 0;
#X connect 24 0 7 0;
#X connect 25 0 3 0;
